# xmcd
#
# Track frame offsets: 
#        150
#        25751
#        46734
#        63186
#        86136
#        108350
#        121742
#        133705
#        153385
#        175971
#        196821
#        217021
#        235932
#        256756
#        281124
#        305658
#
# Disc length: 4422 seconds
#
# Revision: 4
# Processed by: cddbd v1.5.2PL0 Copyright (c) Steve Scherf et al.
# Submitted via: ExactAudioCopyFreeDBPlugin 1.0
#
DISCID=db114410
DTITLE=Various Artist - 2003-2013瑞鸣十周年纪念
DYEAR=2013
DGENRE=Classical
TTITLE0=皂罗袍（选自《粉墨是梦》昆曲）
TTITLE1=良宵（选自《杏花天影》常静·古筝）
TTITLE2=仪式（选自《藏·密》）
TTITLE3=广陵散（选自《琴》赵家珍·古琴）
TTITLE4=花儿为什么这样红（选自《映山红》柴亮·小提琴）
TTITLE5=夜曲（选自《玫瑰三愿》马新桦·大提琴）
TTITLE6=梦的华尔兹（选自《四十七弦的记忆》张小音·竖琴）
TTITLE7=十面埋伏（选自《国乐·炫技》）
TTITLE8=赤壁（选自《三国》）
TTITLE9=红娘·佳期（选自《姹紫嫣红》赵群·京剧）
TTITLE10=步步娇·牡丹亭（选自《春色如许》余彬·昆曲）
TTITLE11=短歌行（选自《短歌行》关栋天）
TTITLE12=丑末寅初（选自《伶歌》）
TTITLE13=草原之夜（选自《心中的玫瑰》于红梅·二胡）
TTITLE14=平沙落雁（选自《天人合一》）
TTITLE15=金戈铁马入梦来（选自《鼓舞心弦》）
EXTD=
EXTT0=
EXTT1=
EXTT2=
EXTT3=
EXTT4=
EXTT5=
EXTT6=
EXTT7=
EXTT8=
EXTT9=
EXTT10=
EXTT11=
EXTT12=
EXTT13=
EXTT14=
EXTT15=
PLAYORDER=
